<?xml version="1.0" encoding="UTF-8" standalone="no"?>
<!-- Created with Inkscape (http://www.inkscape.org/) -->
<svg
   xmlns:dc="http://purl.org/dc/elements/1.1/"
   xmlns:cc="http://creativecommons.org/ns#"
   xmlns:rdf="http://www.w3.org/1999/02/22-rdf-syntax-ns#"
   xmlns:svg="http://www.w3.org/2000/svg"
   xmlns="http://www.w3.org/2000/svg"
   xmlns:xlink="http://www.w3.org/1999/xlink"
   xmlns:sodipodi="http://sodipodi.sourceforge.net/DTD/sodipodi-0.dtd"
   xmlns:inkscape="http://www.inkscape.org/namespaces/inkscape"
   sodipodi:docname="red-6B-pencil.svg"
   inkscape:version="0.46+devel"
   sodipodi:version="0.32"
   id="svg2"
   height="45.843212"
   width="632.67792"
   version="1.0"
   inkscape:output_extension="org.inkscape.output.svg.inkscape">
  <sodipodi:namedview
     id="base"
     pagecolor="#ffffff"
     bordercolor="#666666"
     borderopacity="1.0"
     inkscape:pageopacity="0.0"
     inkscape:pageshadow="2"
     inkscape:zoom="1.2976587"
     inkscape:cx="316.33896"
     inkscape:cy="22.921606"
     inkscape:document-units="px"
     inkscape:current-layer="layer1"
     showgrid="false"
     inkscape:window-width="1280"
     inkscape:window-height="951"
     inkscape:window-x="0"
     inkscape:window-y="24" />
  <defs
     id="defs4">
    <linearGradient
       inkscape:collect="always"
       id="linearGradient4113">
      <stop
         style="stop-color:#e9c6af;stop-opacity:1;"
         offset="0"
         id="stop4115" />
      <stop
         style="stop-color:#ff9955;stop-opacity:1"
         offset="1"
         id="stop4117" />
    </linearGradient>
    <linearGradient
       id="linearGradient4104">
      <stop
         id="stop4106"
         offset="0"
         style="stop-color:#ffffff;stop-opacity:0;" />
      <stop
         style="stop-color:#ffffff;stop-opacity:1;"
         offset="0.06267882"
         id="stop4108" />
      <stop
         id="stop4110"
         offset="1"
         style="stop-color:#ffffff;stop-opacity:0;" />
    </linearGradient>
    <linearGradient
       id="linearGradient4056">
      <stop
         style="stop-color:#ffffff;stop-opacity:0;"
         offset="0"
         id="stop4058" />
      <stop
         id="stop4102"
         offset="0.5"
         style="stop-color:#ffffff;stop-opacity:1;" />
      <stop
         style="stop-color:#ffffff;stop-opacity:0;"
         offset="1"
         id="stop4060" />
    </linearGradient>
    <linearGradient
       inkscape:collect="always"
       id="linearGradient4042">
      <stop
         style="stop-color:#4d4d4d;stop-opacity:1"
         offset="0"
         id="stop4044" />
      <stop
         style="stop-color:#b3b3b3;stop-opacity:1"
         offset="1"
         id="stop4046" />
    </linearGradient>
    <linearGradient
       inkscape:collect="always"
       id="linearGradient3896">
      <stop
         style="stop-color:#1a1a1a;stop-opacity:1"
         offset="0"
         id="stop3898" />
      <stop
         id="stop3904"
         offset="0.57171726"
         style="stop-color:#999999;stop-opacity:1" />
      <stop
         style="stop-color:#1a1a1a;stop-opacity:0;"
         offset="1"
         id="stop3900" />
    </linearGradient>
    <linearGradient
       inkscape:collect="always"
       xlink:href="#linearGradient4104"
       id="linearGradient4000"
       gradientUnits="userSpaceOnUse"
       gradientTransform="matrix(-1,0,0,1,778.68217,6)"
       x1="117.99285"
       y1="116.14621"
       x2="762.82458"
       y2="116.14621" />
    <linearGradient
       inkscape:collect="always"
       xlink:href="#linearGradient3896"
       id="linearGradient4011"
       gradientUnits="userSpaceOnUse"
       x1="117.7143"
       y1="356.50015"
       x2="117.97646"
       y2="393.68338" />
    <filter
       inkscape:collect="always"
       id="filter4038"
       x="-0.012412271"
       width="1.0248245"
       y="-0.36128449"
       height="1.722569">
      <feGaussianBlur
         inkscape:collect="always"
         stdDeviation="3.1481593"
         id="feGaussianBlur4040" />
    </filter>
    <linearGradient
       inkscape:collect="always"
       xlink:href="#linearGradient4042"
       id="linearGradient4048"
       x1="658.08405"
       y1="136.68152"
       x2="74.143578"
       y2="141.87909"
       gradientUnits="userSpaceOnUse" />
    <linearGradient
       inkscape:collect="always"
       xlink:href="#linearGradient4056"
       id="linearGradient4062"
       x1="672.49048"
       y1="121.36514"
       x2="668.57086"
       y2="121.36514"
       gradientUnits="userSpaceOnUse"
       gradientTransform="matrix(1.1893017,0,0,0.50734845,-132.99737,63.132972)" />
    <linearGradient
       inkscape:collect="always"
       xlink:href="#linearGradient4056"
       id="linearGradient4066"
       gradientUnits="userSpaceOnUse"
       gradientTransform="matrix(1.1889197,0,0,0.77423823,-127.90897,20.91374)"
       x1="672.49048"
       y1="121.36514"
       x2="668.57086"
       y2="121.36514" />
    <linearGradient
       inkscape:collect="always"
       xlink:href="#linearGradient4113"
       id="linearGradient4119"
       x1="127.3925"
       y1="367.30646"
       x2="90.767357"
       y2="367.30646"
       gradientUnits="userSpaceOnUse" />
    <linearGradient
       inkscape:collect="always"
       xlink:href="#linearGradient4113"
       id="linearGradient4123"
       gradientUnits="userSpaceOnUse"
       x1="127.3925"
       y1="367.30646"
       x2="90.767357"
       y2="367.30646"
       gradientTransform="matrix(0.86280114,0,0,0.40758962,-15.770724,-30.189943)" />
    <linearGradient
       inkscape:collect="always"
       xlink:href="#linearGradient3896"
       id="linearGradient4129"
       gradientUnits="userSpaceOnUse"
       x1="117.7143"
       y1="356.50015"
       x2="117.97646"
       y2="393.68338" />
  </defs>
  <metadata
     id="metadata7">
    <rdf:RDF>
      <cc:Work
         rdf:about="">
        <dc:format>image/svg+xml</dc:format>
        <dc:type
           rdf:resource="http://purl.org/dc/dcmitype/StillImage" />
        <dc:title></dc:title>
      </cc:Work>
    </rdf:RDF>
  </metadata>
  <g
     id="layer1"
     inkscape:groupmode="layer"
     inkscape:label="Layer 1"
     transform="translate(-51.811311,-103.36304)">
    <g
       id="g4051">
      <path
         sodipodi:nodetypes="cccccsccccc"
         id="rect2967"
         d="m 112.46064,120.73756 0,0.46292 -53.093747,12.60777 54.999997,7.84242 553.60896,-0.44126 5.45716,-0.004 c 3.6373,-0.003 3.43465,-10.6668 3.43465,-10.6668 0.4473,-7.43012 -1.42084,-9.93992 -4.32588,-10.24631 l -558.17489,0.44561 -1.90625,0 0,-3.5e-4 z"
         style="fill:url(#linearGradient4048);fill-opacity:1;filter:url(#filter4038)" />
    </g>
    <path
       style="fill:#d40000"
       d="m 104.9761,104.7191 529.20844,-0.19874 0,30 -528.81095,0 c 0,0 -3.98726,-8.24662 -3.93006,-13.97704 0.055,-5.51207 3.53257,-15.82422 3.53257,-15.82422 z"
       id="rect3920"
       sodipodi:nodetypes="ccccsc" />
    <path
       sodipodi:nodetypes="ccccc"
       id="path3922"
       d="m 105.368,104.52035 c 2.94267,5.64788 4.12386,11.29576 -1.02198,16.94363 2.4577,4.35212 1.67238,13.04236 1.26943,13.05638 l -52.413398,-15 52.165948,-15.00001 z"
       style="fill:url(#linearGradient4123);fill-opacity:1" />
    <path
       transform="matrix(0.25551199,0,0,0.12070455,32.892478,75.18479)"
       style="fill:#000000;fill-opacity:1"
       d="m 143.52152,328.45397 0,78.04676 -63.580995,-39.19427 63.580995,-38.85249 z"
       id="path4125"
       sodipodi:nodetypes="cccc" />
    <path
       transform="matrix(0.25551199,0,0,0.12070455,32.693735,75.184791)"
       style="fill:url(#linearGradient4129);fill-opacity:1"
       d="m 144.32883,328.79576 -0.16146,77.36317 -64.226845,-38.85247 64.388305,-38.5107 z"
       id="path3926"
       sodipodi:nodetypes="cccc" />
    <path
       style="fill:#2b0000"
       d="m 633.96928,104.52036 37.68907,0 c 5.42689,0 5.47117,9.79173 5.47546,14.81335 0.004,5.07913 -0.0486,15.18665 -5.47546,15.18665 l -37.68907,0 0,-30 z"
       id="rect3928"
       sodipodi:nodetypes="cssscc" />
    <path
       id="path3930"
       d="m 669.05702,122.14621 -83.20696,0 -478.53677,0"
       style="color:#000000;fill:#f2f2f2;stroke:url(#linearGradient4000);stroke-width:1px;stroke-linecap:butt;stroke-linejoin:miter;stroke-miterlimit:4;stroke-opacity:1;stroke-dasharray:none;stroke-dashoffset:0;marker:none;visibility:visible;display:inline;overflow:visible;enable-background:accumulate"
       sodipodi:nodetypes="ccc" />
    <g
       transform="scale(1.2273418,0.81476896)"
       style="font-size:18.93891525px;font-style:normal;font-weight:normal;fill:#ffffff;fill-opacity:1;stroke:none;font-family:Bitstream Vera Sans"
       id="text3932">
      <path
         d="m 527.03562,138.10033 c -0.83844,10e-6 -1.50426,0.28669 -1.99746,0.86002 -0.48704,0.57336 -0.73056,1.35939 -0.73055,2.35812 -10e-6,0.99257 0.24351,1.77861 0.73055,2.35812 0.4932,0.57335 1.15902,0.86002 1.99746,0.86002 0.83844,0 1.50118,-0.28667 1.98822,-0.86002 0.49319,-0.57951 0.73979,-1.36555 0.7398,-2.35812 -10e-6,-0.99873 -0.24661,-1.78476 -0.7398,-2.35812 -0.48704,-0.57333 -1.14978,-0.86001 -1.98822,-0.86002 m 3.70826,-5.85367 0,1.70154 c -0.46855,-0.22193 -0.94326,-0.39147 -1.42412,-0.50861 -0.47471,-0.11713 -0.94634,-0.17569 -1.41487,-0.17571 -1.23301,2e-5 -2.17625,0.41615 -2.82974,1.24842 -0.64733,0.83229 -1.01723,2.08995 -1.1097,3.77299 0.36373,-0.53635 0.81994,-0.94633 1.36863,-1.22992 0.54868,-0.28975 1.15285,-0.43463 1.81251,-0.43464 1.38712,1e-5 2.48141,0.42231 3.28287,1.26691 0.80761,0.83845 1.21142,1.98206 1.21143,3.43083 -10e-6,1.41796 -0.41923,2.5554 -1.25767,3.41233 -0.83845,0.85694 -1.95431,1.28541 -3.3476,1.28541 -1.59674,0 -2.81741,-0.61034 -3.66201,-1.83101 -0.84461,-1.22683 -1.26691,-3.00235 -1.26691,-5.32657 0,-2.1824 0.51786,-3.92094 1.55358,-5.2156 1.03572,-1.3008 2.42593,-1.95121 4.17063,-1.95122 0.46853,1e-5 0.94016,0.0462 1.41487,0.13871 0.48086,0.0925 0.98023,0.2312 1.4981,0.41614"
         style=""
         id="path4071" />
      <path
         d="m 534.96598,139.15455 0,5.05839 2.99619,0 c 1.00489,1e-5 1.74778,-0.20652 2.22865,-0.61958 0.48703,-0.41922 0.73055,-1.0573 0.73056,-1.91424 -10e-6,-0.86309 -0.24353,-1.49809 -0.73056,-1.90498 -0.48087,-0.41305 -1.22376,-0.61958 -2.22865,-0.61959 l -2.99619,0 m 0,-5.67797 0,4.16138 2.76501,0 c 0.91241,1e-5 1.59056,-0.16953 2.03445,-0.50861 0.45004,-0.34524 0.67506,-0.86926 0.67507,-1.57208 -10e-6,-0.69664 -0.22503,-1.21758 -0.67507,-1.56283 -0.44389,-0.34523 -1.12204,-0.51785 -2.03445,-0.51786 l -2.76501,0 m -1.868,-1.53509 4.77172,0 c 1.42411,1e-5 2.52148,0.29593 3.29211,0.88776 0.77062,0.59185 1.15593,1.43338 1.15594,2.52457 -1e-5,0.84462 -0.19729,1.5166 -0.59184,2.01596 -0.39457,0.49937 -0.97408,0.81071 -1.73853,0.934 0.91858,0.19729 1.63063,0.61034 2.13618,1.23917 0.51168,0.62267 0.76753,1.40254 0.76754,2.33962 -1e-5,1.233 -0.41923,2.1855 -1.25766,2.85748 -0.83845,0.67199 -2.03138,1.00798 -3.57879,1.00798 l -4.95667,0 0,-13.80654"
         style=""
         id="path4073" />
    </g>
    <g
       transform="matrix(1.3849895,-0.00337391,0,0.72202713,0,0)"
       style="font-size:16.33036232px;font-style:normal;font-weight:normal;fill:#ffffff;fill-opacity:1;stroke:none;font-family:Bitstream Vera Sans"
       id="text3936">
      <path
         d="m 467.42441,179.1426 c -0.72296,0 -1.29707,0.24719 -1.72234,0.74156 -0.41996,0.49438 -0.62993,1.17216 -0.62993,2.03332 0,0.85586 0.20997,1.53364 0.62993,2.03333 0.42527,0.49437 0.99938,0.74156 1.72234,0.74156 0.72296,0 1.29441,-0.24719 1.71437,-0.74156 0.42527,-0.49969 0.6379,-1.17747 0.63791,-2.03333 -10e-6,-0.86116 -0.21264,-1.53894 -0.63791,-2.03332 -0.41996,-0.49437 -0.99141,-0.74156 -1.71437,-0.74156 m 3.1975,-5.04742 0,1.46718 c -0.40401,-0.19136 -0.81333,-0.33755 -1.22796,-0.43856 -0.40933,-0.10099 -0.816,-0.15149 -1.22,-0.1515 -1.06318,1e-5 -1.87651,0.35883 -2.43998,1.07646 -0.55817,0.71765 -0.87713,1.80209 -0.95686,3.25331 0.31363,-0.46247 0.70701,-0.81598 1.18012,-1.06051 0.47311,-0.24984 0.99407,-0.37476 1.56287,-0.37477 1.19606,1e-5 2.13963,0.36414 2.8307,1.09241 0.69637,0.72297 1.04456,1.70906 1.04457,2.95828 -1e-5,1.22266 -0.36149,2.20343 -1.08444,2.94234 -0.72296,0.73891 -1.68514,1.10836 -2.88652,1.10836 -1.37681,0 -2.42935,-0.52627 -3.15762,-1.57882 -0.72828,-1.05785 -1.09242,-2.58882 -1.09242,-4.59291 0,-1.88181 0.44654,-3.38089 1.3396,-4.49723 0.89307,-1.12164 2.09179,-1.68246 3.59619,-1.68247 0.404,1e-5 0.81067,0.0399 1.21999,0.1196 0.41463,0.0798 0.84522,0.19936 1.29176,0.35883"
         style=""
         id="path4076" />
      <path
         d="m 474.26248,180.05161 0,4.36168 2.58352,0 c 0.86648,0 1.50704,-0.17808 1.92168,-0.53425 0.41995,-0.36148 0.62993,-0.91167 0.62993,-1.65058 0,-0.74422 -0.20998,-1.29175 -0.62993,-1.6426 -0.41464,-0.35616 -1.0552,-0.53424 -1.92168,-0.53425 l -2.58352,0 m 0,-4.89592 0,3.58822 2.38417,0 c 0.78674,0 1.37149,-0.14618 1.75424,-0.43856 0.38805,-0.29768 0.58208,-0.74953 0.58209,-1.35555 -10e-6,-0.60068 -0.19404,-1.04987 -0.58209,-1.34757 -0.38275,-0.29768 -0.9675,-0.44653 -1.75424,-0.44654 l -2.38417,0 m -1.61071,-1.32365 4.11449,0 c 1.22796,1e-5 2.17418,0.25517 2.83867,0.76549 0.66448,0.51033 0.99672,1.23595 0.99673,2.17685 -10e-6,0.72828 -0.17012,1.30771 -0.51032,1.73829 -0.34023,0.43059 -0.83992,0.69904 -1.49908,0.80535 0.79206,0.17012 1.40604,0.52628 1.84195,1.06849 0.44121,0.53691 0.66182,1.20937 0.66183,2.01738 -1e-5,1.06317 -0.36149,1.88447 -1.08444,2.4639 -0.72297,0.57943 -1.75159,0.86915 -3.08587,0.86915 l -4.27396,0 0,-11.9049"
         style=""
         id="path4078" />
    </g>
    <rect
       y="104.61909"
       x="666.96808"
       height="17.919182"
       width="4.4381742"
       id="rect4064"
       style="opacity:0.25;fill:url(#linearGradient4066);fill-opacity:1" />
    <rect
       style="opacity:0.25;fill:url(#linearGradient4062);fill-opacity:1"
       id="rect4054"
       width="29.878187"
       height="11.558391"
       x="636.69647"
       y="118.16785"
       transform="matrix(0.99997393,0.00722042,0.04083784,0.99916579,0,0)" />
    <path
       style="color:#000000;fill:#ffffff;stroke:#ffffff;stroke-width:3;stroke-linecap:butt;stroke-linejoin:miter;stroke-miterlimit:4;stroke-opacity:1;stroke-dasharray:none;stroke-dashoffset:0;marker:none;visibility:visible;display:inline;overflow:visible;enable-background:accumulate"
       d="m 634.0143,104.86304 0,29.49928"
       id="path4068" />
  </g>
</svg>
